# This file uses centimeters as units for non-parametric coordinates.

mtllib playerOBJ.mtl
g default
v 28.499090 -0.000000 -0.230084
v 28.318917 0.000000 -3.207789
v 27.828478 -0.000000 -6.150350
v 27.033144 0.000000 -9.025526
v 31.498993 -0.000000 -0.254303
v 31.299856 -0.000000 -3.545451
v 30.757792 -0.000000 -6.797755
v 29.878738 -0.000000 -9.975581
v 29.999041 -1.500000 -0.242193
v 29.809386 -1.500000 -3.376620
v 29.293135 -1.500000 -6.474053
v 28.455940 -1.500000 -9.500553
vt 0.411820 0.089894
vt 0.200154 0.057954
vt 0.147100 0.356665
vt 0.383566 0.383564
vt 0.582524 0.089071
vt 0.615839 0.381000
vt 0.850996 0.351004
vt 0.976704 0.175883
vt 0.171072 0.206920
vt 0.392708 0.234322
vt 0.604188 0.233268
vt 0.824802 0.201447
vt 0.057011 0.579517
vt 0.793762 0.053142
vt 0.930216 0.554423
vt 0.018758 0.183528
vt 0.984525 0.843276
vt 0.019372 0.871011
vt 0.341465 0.895557
vt 0.664367 0.886271
vt 0.348411 0.601727
vt 0.640552 0.593322
vn 0.000000 1.000000 -0.000000
vn 0.000000 1.000000 -0.000000
vn 0.000000 1.000000 -0.000000
vn 0.000000 1.000000 -0.000000
vn 0.000000 1.000000 -0.000000
vn 0.000000 1.000000 -0.000000
vn 0.000000 1.000000 -0.000000
vn 0.000000 1.000000 -0.000000
vn 0.702613 -0.707107 -0.079588
vn 0.706299 -0.706622 -0.042736
vn 0.706299 -0.706622 -0.042736
vn 0.702613 -0.707107 -0.079588
vn 0.690445 -0.707107 -0.152594
vn 0.690445 -0.707107 -0.152594
vn 0.681980 -0.706622 -0.188650
vn 0.681980 -0.706622 -0.188650
vn -0.702613 -0.707107 0.079588
vn -0.706300 -0.706622 0.042736
vn -0.706300 -0.706622 0.042736
vn -0.702613 -0.707107 0.079588
vn -0.690445 -0.707107 0.152595
vn -0.690445 -0.707107 0.152595
vn -0.681980 -0.706622 0.188650
vn -0.681980 -0.706622 0.188650
vn 0.008073 -0.000000 0.999967
vn 0.008073 -0.000000 0.999967
vn 0.008073 -0.000000 0.999967
vn -0.316685 0.000000 -0.948531
vn -0.316685 0.000000 -0.948531
vn -0.316685 0.000000 -0.948531
s 1
g polySurface3 pTorus1
usemtl lambert2SG
f 2/22/1 1/15/2 5/17/3 6/20/4
f 3/21/5 2/22/1 6/20/4 7/19/6
f 8/18/7 4/13/8 3/21/5 7/19/6
s 2
f 6/4/9 5/3/10 9/9/11 10/10/12
f 7/6/13 6/4/9 10/10/12 11/11/14
f 8/7/15 7/6/13 11/11/14 12/12/16
s 3
f 10/10/17 9/9/18 1/2/19 2/1/20
f 11/11/21 10/10/17 2/1/20 3/5/22
f 12/12/23 11/11/21 3/5/22 4/14/24
s off
f 5/3/25 1/16/26 9/9/27
f 8/7/28 12/12/29 4/8/30
