# This file uses centimeters as units for non-parametric coordinates.

mtllib Segment.mtl
g default
v 0.456842 0.000000 -3.470055
v -0.456841 0.000000 -3.470055
v 0.554737 0.433013 -4.213638
v -0.554735 0.433013 -4.213638
v 0.554737 -0.433013 -4.213638
v -0.554735 -0.433013 -4.213638
vt 0.166667 1.000000
vt 0.208333 1.000000
vt 0.166667 0.666667
vt 0.208333 0.666667
vt 0.166667 0.333333
vt 0.208333 0.333333
vt 0.166667 -0.000000
vt 0.208333 -0.000000
vt 0.000000 0.000000
vt 1.000000 0.000000
vt 0.500000 0.866026
vt 0.000000 0.000000
vt 1.000000 0.000000
vt 0.500000 0.866025
vn -0.657223 0.000000 0.753696
vn 0.657223 0.000000 0.753696
vn 0.726209 0.632972 -0.268267
vn -0.726209 0.632972 -0.268268
vn 0.726209 -0.632972 -0.268267
vn -0.726209 -0.632972 -0.268268
s 1
g pTorus1
usemtl initialShadingGroup
f 2/2/1 1/1/2 3/3/3 4/4/4
f 4/4/4 3/3/3 5/5/5 6/6/6
f 6/6/6 5/5/5 1/7/2 2/8/1
f 3/9/3 1/10/2 5/11/5
f 4/12/4 6/13/6 2/14/1
