# This file uses centimeters as units for non-parametric coordinates.

mtllib startingTurret.mtl
g default
v 0.000000 -1.879810 -8.597731
v 0.000000 -1.879810 -12.993037
v 2.125185 -1.879810 -10.527955
v 0.000000 -0.730046 -8.518462
v 2.125185 -0.989684 -10.397848
v 0.000000 -0.614623 -12.862930
v 0.000000 0.415157 -8.611289
v 1.000000 0.831823 -10.137633
v 0.000000 0.507846 -12.086140
v 0.000000 -0.228492 -1.959893
v 0.000000 0.270586 -1.651850
v 1.077489 -0.356412 -8.737173
v 1.953908 -0.349250 -9.306199
v 1.444931 0.293634 -9.399017
v 1.058402 0.080065 -8.760230
v 0.315594 0.123039 -1.839485
v 0.224429 -0.185059 -2.002674
v 0.000000 0.916899 -10.611289
v 0.000000 -0.270462 0.106982
v 0.286222 -0.212727 0.074737
v 0.377387 0.087820 0.155490
v 0.000000 0.251101 0.356066
v 0.000000 -0.396236 -1.863718
v 0.319863 -0.305004 -1.899016
v 0.356328 -0.281937 -0.059521
v 0.000000 -0.437460 -0.026362
v 0.462618 0.146406 -1.603441
v 0.467224 0.176262 0.024213
v 0.000000 0.414749 -1.365947
v 0.000000 0.388746 0.183440
v -0.322024 -0.212727 0.074737
v -0.413189 0.087820 0.155490
v -1.113291 -0.356412 -8.737173
v -0.260230 -0.185059 -2.002674
v -1.094204 0.080065 -8.760230
v -0.351396 0.123039 -1.839485
v -1.035802 0.831823 -10.137633
v -2.160986 -0.989684 -10.397848
v -2.160986 -1.879810 -10.527955
v -1.480733 0.293634 -9.399017
v -1.989709 -0.349250 -9.306199
v -0.355664 -0.305004 -1.899016
v -0.392130 -0.281937 -0.059521
v -0.498419 0.146406 -1.603441
v -0.503025 0.176262 0.024213
vt 0.265052 0.096694
vt 0.445805 0.488239
vt 0.365451 0.420181
vt 0.008944 0.684244
vt 0.048756 0.766986
vt 0.365640 0.914389
vt 0.139677 0.205874
vt 0.065807 0.165922
vt 0.206217 0.316800
vt 0.230202 0.158324
vt 0.085208 0.384421
vt 0.613458 0.970241
vt 0.892531 0.956543
vt 0.736959 0.615012
vt 0.673316 0.638467
vt 0.703850 0.898088
vt 0.838282 0.932608
vt 0.092428 0.292198
vt 0.633277 0.697452
vt 0.647775 0.941041
vt 0.136319 0.566468
vt 0.146577 0.503274
vt 0.260054 0.676076
vt 0.225852 0.614767
vt 0.204397 0.457313
vt 0.148982 0.269475
vt 0.709108 0.935911
vt 0.249686 0.386463
vt 0.582734 0.668374
vt 0.548226 0.648983
vt 0.553469 0.605763
vt 0.606685 0.602480
vt 0.600101 0.943975
vt 0.899153 0.934865
vt 0.903766 0.693943
vt 0.574126 0.697199
vt 0.841509 0.894872
vt 0.840595 0.681338
vt 0.774269 0.865364
vt 0.770621 0.660726
vt 0.090535 0.479418
vt 0.624595 0.676269
vt 0.648449 0.640766
vt 0.654553 0.962895
vt 0.069689 0.509308
vt 0.735183 0.026835
vt 0.840665 0.006644
vt 0.881245 0.009993
vt 0.985449 0.048712
vt 0.496054 0.079949
vt 0.866313 0.649157
vt 0.941937 0.934901
vt 0.591346 0.028978
vt 0.692577 0.659698
vt 0.929004 0.962325
vt 0.631140 0.020368
vt 0.696699 0.683082
vt 0.955741 0.691767
vt 0.615671 0.577867
vt 0.526932 0.659290
vt 0.535796 0.587742
vt 0.775504 0.911021
vt 0.811983 0.653793
vt 0.842893 0.640776
vt 0.711604 0.649381
vt 0.743947 0.658257
vt 0.497146 0.200358
vt 0.492043 0.574902
vt 0.054298 0.005743
vt 0.116775 0.985091
vt 0.449467 0.287456
vt 0.014103 0.088738
vt 0.367268 0.355060
vt 0.062481 0.605677
vt 0.072104 0.261959
vn 0.250624 -0.384283 0.888546
vn 0.250624 -0.384283 0.888546
vn 0.250624 -0.384283 0.888546
vn 0.250624 -0.384283 0.888546
vn 0.316766 -0.946048 0.068218
vn 0.316766 -0.946048 0.068218
vn 0.316766 -0.946048 0.068218
vn 0.316766 -0.946048 0.068218
vn 0.986145 -0.117501 0.117093
vn 0.986145 -0.117501 0.117093
vn 0.986145 -0.117501 0.117093
vn 0.986145 -0.117501 0.117093
vn -0.032719 0.969424 0.243200
vn -0.032719 0.969424 0.243200
vn -0.032719 0.969424 0.243200
vn 0.728003 0.457953 -0.510186
vn 0.758722 0.273736 -0.591109
vn 0.728003 0.457953 -0.510186
vn 0.758722 0.273736 -0.591109
vn 0.662895 -0.076447 0.744799
vn 0.557414 -0.462070 0.689769
vn 0.662895 -0.076447 0.744799
vn 0.557414 -0.462070 0.689769
vn 0.758722 0.273736 -0.591109
vn 0.758008 0.078179 -0.647543
vn 0.758722 0.273736 -0.591109
vn 0.758008 0.078179 -0.647543
vn 0.651323 0.661166 0.372341
vn 0.855283 0.073296 0.512951
vn 0.818733 0.553325 -0.153324
vn 0.818733 0.553325 -0.153324
vn 0.336738 0.941269 0.024910
vn 0.336738 0.941269 0.024910
vn 0.336738 0.941269 0.024910
vn 0.336738 0.941269 0.024910
vn 0.855283 0.073296 0.512951
vn 0.600570 -0.248345 0.760026
vn 0.557414 -0.462070 0.689769
vn 0.557414 -0.462070 0.689769
vn 0.651323 0.661166 0.372341
vn 0.313032 0.839180 0.444735
vn 0.482774 0.635881 0.602150
vn 0.313032 0.839180 0.444735
vn 0.855283 0.073296 0.512951
vn 0.651323 0.661166 0.372341
vn 0.600570 -0.248345 0.760026
vn 0.482774 0.635881 0.602150
vn 0.204178 0.943324 -0.261632
vn 0.204178 0.943324 -0.261632
vn 0.204178 0.943324 -0.261632
vn 0.342078 -0.939637 -0.008033
vn 0.342078 -0.939637 -0.008033
vn 0.342078 -0.939637 -0.008033
vn 0.342078 -0.939637 -0.008033
vn 0.964014 -0.265751 -0.007363
vn 0.964014 -0.265751 -0.007363
vn 0.964014 -0.265751 -0.007363
vn 0.964014 -0.265751 -0.007363
vn 0.458742 0.888568 -0.001743
vn 0.458742 0.888568 -0.001743
vn 0.458742 0.888568 -0.001743
vn 0.458742 0.888568 -0.001743
vn 0.021643 -0.565502 -0.824463
vn 0.021643 -0.565502 -0.824463
vn 0.021643 -0.565502 -0.824463
vn 0.021643 -0.565502 -0.824463
vn 0.293458 -0.677263 0.674684
vn 0.293458 -0.677263 0.674684
vn 0.293458 -0.677263 0.674684
vn 0.293458 -0.677263 0.674684
vn 0.822351 0.086415 -0.562380
vn 0.822351 0.086415 -0.562380
vn 0.822351 0.086415 -0.562380
vn 0.822351 0.086415 -0.562380
vn 0.821382 -0.320958 0.471506
vn 0.821382 -0.320958 0.471506
vn 0.821382 -0.320958 0.471506
vn 0.821382 -0.320958 0.471506
vn 0.276811 0.889525 -0.363484
vn 0.276811 0.889525 -0.363484
vn 0.276811 0.889525 -0.363484
vn 0.276811 0.889525 -0.363484
vn 0.524357 0.601622 0.602578
vn 0.524357 0.601622 0.602578
vn 0.524357 0.601622 0.602578
vn 0.524357 0.601622 0.602578
vn -0.228140 -0.384223 0.894609
vn -0.228140 -0.384223 0.894609
vn -0.228140 -0.384223 0.894609
vn -0.228140 -0.384223 0.894609
vn -0.301629 -0.951033 0.067499
vn -0.301629 -0.951033 0.067499
vn -0.301629 -0.951033 0.067499
vn -0.301629 -0.951033 0.067499
vn -0.986145 -0.117501 0.117094
vn -0.986145 -0.117501 0.117094
vn -0.986145 -0.117501 0.117094
vn -0.986145 -0.117501 0.117094
vn 0.031589 0.969459 0.243209
vn 0.031589 0.969459 0.243209
vn 0.031589 0.969459 0.243209
vn -0.722265 0.458454 -0.517835
vn -0.722265 0.458454 -0.517835
vn -0.752970 0.274354 -0.598136
vn -0.752970 0.274354 -0.598136
vn -0.551228 -0.465539 0.692403
vn -0.551228 -0.465539 0.692403
vn -0.656671 -0.077005 0.750236
vn -0.656671 -0.077005 0.750236
vn -0.752970 0.274354 -0.598136
vn -0.752970 0.274354 -0.598136
vn -0.752589 0.078928 -0.653744
vn -0.752589 0.078928 -0.653744
vn -0.818733 0.553325 -0.153324
vn -0.855075 0.071328 0.513575
vn -0.818733 0.553325 -0.153324
vn -0.649457 0.662518 0.373197
vn -0.321644 0.946553 0.024141
vn -0.321644 0.946553 0.024141
vn -0.321644 0.946553 0.024141
vn -0.321644 0.946553 0.024141
vn -0.855075 0.071328 0.513575
vn -0.551228 -0.465539 0.692403
vn -0.598202 -0.251928 0.760714
vn -0.551228 -0.465539 0.692403
vn -0.306289 0.840990 0.446009
vn -0.306289 0.840990 0.446009
vn -0.479568 0.637274 0.603238
vn -0.649457 0.662518 0.373197
vn -0.479568 0.637274 0.603238
vn -0.649457 0.662518 0.373197
vn -0.598202 -0.251928 0.760714
vn -0.855075 0.071328 0.513575
vn -0.197400 0.944663 -0.262003
vn -0.197400 0.944663 -0.262003
vn -0.197400 0.944663 -0.262003
vn -0.312705 -0.949818 -0.007792
vn -0.312705 -0.949818 -0.007792
vn -0.312705 -0.949818 -0.007792
vn -0.312705 -0.949818 -0.007792
vn -0.964014 -0.265751 -0.007363
vn -0.964014 -0.265751 -0.007363
vn -0.964014 -0.265751 -0.007363
vn -0.964014 -0.265751 -0.007363
vn -0.432275 0.901740 -0.001720
vn -0.432275 0.901740 -0.001720
vn -0.432275 0.901740 -0.001720
vn -0.432275 0.901740 -0.001720
vn -0.019290 -0.566060 -0.824139
vn -0.019290 -0.566060 -0.824139
vn -0.019290 -0.566060 -0.824139
vn -0.019290 -0.566060 -0.824139
vn -0.266991 -0.686729 0.676106
vn -0.266991 -0.686729 0.676106
vn -0.266991 -0.686729 0.676106
vn -0.266991 -0.686729 0.676106
vn -0.822353 0.086415 -0.562377
vn -0.822353 0.086415 -0.562377
vn -0.822353 0.086415 -0.562377
vn -0.822353 0.086415 -0.562377
vn -0.821382 -0.320958 0.471506
vn -0.821382 -0.320958 0.471506
vn -0.821382 -0.320958 0.471506
vn -0.821382 -0.320958 0.471506
vn -0.258319 0.896297 -0.360449
vn -0.258319 0.896297 -0.360449
vn -0.258319 0.896297 -0.360449
vn -0.258319 0.896297 -0.360449
vn -0.493751 0.621452 0.608283
vn -0.493751 0.621452 0.608283
vn -0.493751 0.621452 0.608283
vn -0.493751 0.621452 0.608283
vn 0.000000 -1.000000 0.000000
vn 0.000000 -1.000000 0.000000
vn 0.000000 -1.000000 0.000000
vn 0.000000 -1.000000 0.000000
s 1
g playerJet_UV_StartingCannonl_01:pCube1
usemtl blinn21SG
f 20/30/1 21/31/2 19/29/3
f 19/29/3 21/31/2 22/32/4
s 2
f 12/53/5 17/65/6 4/50/7
f 4/50/7 17/65/6 10/54/8
s 3
f 12/53/9 15/56/10 17/65/11
f 17/65/11 15/56/10 16/66/12
s off
f 8/9/13 18/28/14 7/11/15
s 4
f 8/9/16 5/10/17 9/73/18
f 9/73/18 5/10/17 6/71/19
s 5
f 3/1/20 5/10/21 1/69/22
f 1/69/22 5/10/21 4/72/23
s 6
f 5/10/24 3/1/25 6/71/26
f 6/71/26 3/1/25 2/67/27
s 7
f 14/26/28 13/7/29 8/9/30
f 8/9/30 13/7/29 5/10/31
s 8
f 15/56/32 7/46/33 16/66/34
f 16/66/34 7/46/33 11/14/35
s 9
f 13/7/36 12/8/37 5/10/38
f 5/10/38 12/8/37 4/72/39
s 10
f 14/26/40 8/9/41 15/18/42
f 15/18/42 8/9/41 7/11/43
s 11
f 13/7/44 14/26/45 12/75/46
f 12/75/46 14/26/45 15/18/47
s off
f 18/28/48 8/9/49 9/73/50
s 12
f 24/34/51 25/35/52 23/52/53
f 23/52/53 25/35/52 26/58/54
s 13
f 24/34/55 27/37/56 25/35/57
f 25/35/57 27/37/56 28/38/58
s 14
f 27/37/59 29/39/60 28/38/61
f 28/38/61 29/39/60 30/40/62
s 15
f 17/13/63 24/34/64 10/55/65
f 10/55/65 24/34/64 23/52/66
s 16
f 19/29/67 26/36/68 20/30/69
f 20/30/69 26/36/68 25/60/70
s 17
f 17/13/71 16/17/72 24/34/73
f 24/34/73 16/17/72 27/37/74
s 18
f 20/30/75 25/60/76 21/31/77
f 21/31/77 25/60/76 28/61/78
s 19
f 16/17/79 11/62/80 27/37/81
f 27/37/81 11/62/80 29/39/82
s 20
f 22/32/83 21/31/84 30/59/85
f 30/59/85 21/31/84 28/61/86
s 21
f 22/32/87 32/43/88 19/29/89
f 19/29/89 32/43/88 31/42/90
s 22
f 10/51/91 34/64/92 4/49/93
f 4/49/93 34/64/92 33/48/94
s 23
f 33/48/95 34/64/96 35/47/97
f 35/47/97 34/64/96 36/63/98
s off
f 37/25/99 7/11/100 18/28/101
s 24
f 37/25/102 9/3/103 38/24/104
f 38/24/104 9/3/103 6/2/105
s 25
f 4/4/106 38/24/107 1/5/108
f 1/5/108 38/24/107 39/23/109
s 26
f 38/24/110 6/2/111 39/23/112
f 39/23/112 6/2/111 2/68/113
s 27
f 38/24/114 41/21/115 37/25/116
f 37/25/116 41/21/115 40/22/117
s 28
f 11/14/118 7/46/119 36/63/120
f 36/63/120 7/46/119 35/47/121
s 29
f 41/21/122 38/24/123 33/74/124
f 33/74/124 38/24/123 4/4/125
s 30
f 7/11/126 37/25/127 35/41/128
f 35/41/128 37/25/127 40/22/129
s 31
f 35/41/130 40/22/131 33/45/132
f 33/45/132 40/22/131 41/21/133
s off
f 18/28/134 9/3/135 37/25/136
s 32
f 26/36/137 43/19/138 23/33/139
f 23/33/139 43/19/138 42/20/140
s 33
f 42/20/141 43/19/142 44/16/143
f 44/16/143 43/19/142 45/57/144
s 34
f 44/16/145 45/57/146 29/39/147
f 29/39/147 45/57/146 30/40/148
s 35
f 10/12/149 23/33/150 34/44/151
f 34/44/151 23/33/150 42/20/152
s 36
f 43/19/153 26/36/154 31/42/155
f 31/42/155 26/36/154 19/29/156
s 37
f 34/44/157 42/20/158 36/27/159
f 36/27/159 42/20/158 44/16/160
s 38
f 45/15/161 43/19/162 32/43/163
f 32/43/163 43/19/162 31/42/164
s 39
f 36/27/165 44/16/166 11/62/167
f 11/62/167 44/16/166 29/39/168
s 40
f 22/32/169 30/59/170 32/43/171
f 32/43/171 30/59/170 45/15/172
s 41
f 1/5/173 39/23/174 3/70/175
f 3/70/175 39/23/174 2/6/176
