# This file uses centimeters as units for non-parametric coordinates.

mtllib cruiser.mtl
g default
v 0.000000 -7.100615 14.000000
v 5.851500 -6.809801 14.861429
v 7.685203 0.000000 17.985365
v 0.000000 8.841367 14.000000
v 7.206387 8.841367 14.000000
v 0.000000 3.500000 -21.071058
v 5.914574 2.500000 -20.721870
v 0.000000 1.000000 -19.162678
v 5.914574 0.000000 -18.813490
v 0.000000 -2.069791 -15.820663
v 5.914574 -2.500000 -18.813490
v 6.873635 11.214700 1.307988
v 0.000000 12.497377 3.000000
v 6.820035 -5.812167 3.000000
v 0.000000 -7.370514 3.000000
v 7.761601 0.000000 6.274688
v 6.570035 9.841367 8.500000
v 6.570035 -5.812167 8.500000
v 0.000000 -7.370514 10.000000
v 6.570035 0.000000 8.500000
v 0.000000 9.841367 10.000000
v 13.340034 -0.000001 -4.965667
v 13.340034 -1.060000 -4.965667
v 13.340034 0.000001 -2.845667
v 13.340034 -1.059999 -2.845667
v 13.340034 2.001375 -4.965667
v 9.490686 3.519763 -0.396554
v 7.639523 -2.000001 -21.193567
v 7.639523 -4.861177 -21.193569
v 15.679965 -2.000000 -12.823961
v 15.679965 -3.576454 -12.823961
v 7.639523 1.457304 -21.193567
v 15.679964 0.172581 -12.823959
v 0.000000 -0.588074 28.984573
v 3.227573 -3.117370 28.000000
v 0.000000 -7.117370 28.000000
v 1.540000 -7.117370 28.000000
v 5.728848 5.069860 25.023563
v 0.000000 5.069860 26.641174
v 0.000000 14.750298 -26.429573
v 0.000000 14.750298 -21.429573
v 3.000000 14.750298 -21.429573
v 3.000000 14.750298 -26.429573
v 0.000000 12.698414 -13.929572
v 0.000000 4.807373 -24.999256
v 5.830247 13.077496 -14.747479
v 5.824418 5.042942 -21.681284
v 23.885628 11.434885 -17.223482
v 23.882208 11.297007 -36.434723
v 23.613245 11.956028 -37.596462
v 23.613243 12.102287 -18.399992
v 9.417320 -1.999993 -23.219191
v 9.417315 -7.026844 -23.219194
v 19.921305 -1.999993 -23.411007
v 19.921307 -4.706944 -23.411007
v 9.417320 3.026857 -23.219189
v 19.921307 0.706958 -23.411003
v 0.869779 8.234275 -32.429695
v 7.765650 8.301323 -32.547890
v 0.869779 15.286667 -33.536839
v 7.536691 15.286668 -33.536839
v 18.381325 3.405778 9.546352
v 17.478785 5.744696 12.793335
v 18.160427 7.484632 7.707754
v -5.851500 -6.809801 14.861429
v -7.685203 0.000000 17.985365
v -7.206387 8.841367 14.000000
v -5.914574 2.500000 -20.721870
v -5.914574 0.000000 -18.813490
v -5.914574 -2.500000 -18.813490
v -6.873635 11.214700 1.307988
v -6.820035 -5.812167 3.000000
v -7.761601 0.000000 6.274688
v -6.570035 9.841367 8.500000
v -6.570035 -5.812167 8.500000
v -6.570035 0.000000 8.500000
v -13.340034 -0.000001 -4.965667
v -13.340034 -1.060000 -4.965667
v -13.340034 0.000001 -2.845667
v -13.340034 -1.059999 -2.845667
v -13.340034 2.001375 -4.965667
v -9.490686 3.519763 -0.396554
v -7.639523 -2.000001 -21.193567
v -7.639523 -4.861177 -21.193569
v -15.679965 -2.000000 -12.823961
v -15.679965 -3.576454 -12.823961
v -7.639523 1.457304 -21.193567
v -15.679964 0.172581 -12.823959
v -3.227573 -3.117370 28.000000
v -1.540000 -7.117370 28.000000
v -5.728848 5.069860 25.023563
v -3.000000 14.750298 -21.429573
v -3.000000 14.750298 -26.429573
v -5.830247 13.077496 -14.747479
v -5.824418 5.042942 -21.681284
v -23.885628 11.434885 -17.223482
v -23.882208 11.297007 -36.434723
v -23.613245 11.956028 -37.596462
v -23.613243 12.102287 -18.399992
v -9.417320 -1.999993 -23.219191
v -9.417315 -7.026844 -23.219194
v -19.921305 -1.999993 -23.411007
v -19.921307 -4.706944 -23.411007
v -9.417320 3.026857 -23.219189
v -19.921307 0.706958 -23.411003
v -0.869779 8.234275 -32.429695
v -7.765650 8.301323 -32.547890
v -0.869779 15.286667 -33.536839
v -7.536691 15.286668 -33.536839
v -18.381325 3.405778 9.546352
v -17.478785 5.744696 12.793335
v -18.160427 7.484632 7.707754
vt 0.500000 0.000000
vt 0.625000 0.000000
vt 0.625000 0.125000
vt 0.500000 0.250000
vt 0.625000 0.250000
vt 0.500000 0.500000
vt 0.625000 0.500000
vt 0.500000 0.625000
vt 0.625000 0.625000
vt 0.500000 0.750000
vt 0.625000 0.750000
vt 0.500000 1.000000
vt 0.625000 1.000000
vt 0.875000 0.000000
vt 0.875000 0.125000
vt 0.875000 0.250000
vt 0.625000 0.375000
vt 0.500000 0.375000
vt 0.500000 0.875000
vt 0.625000 0.875000
vt 0.750000 0.000000
vt 0.750000 0.125000
vt 0.750000 0.250000
vt 0.625000 0.312500
vt 0.625000 0.937500
vt 0.500000 0.937500
vt 0.687500 0.125000
vt 0.687500 0.000000
vt 0.687500 0.250000
vt 0.500000 0.312500
vt 0.875000 0.000000
vt 0.875000 0.125000
vt 0.750000 0.125000
vt 0.750000 0.000000
vt 0.875000 0.250000
vt 0.750000 0.250000
vt 0.875000 0.000000
vt 0.875000 0.125000
vt 0.875000 0.125000
vt 0.875000 0.000000
vt 0.875000 0.250000
vt 0.875000 0.250000
vt 0.500000 0.125000
vt 0.500000 0.000000
vt 0.625000 0.000000
vt 0.625000 0.125000
vt 0.625000 0.250000
vt 0.500000 0.250000
vt 0.500000 0.500000
vt 0.500000 0.375000
vt 0.625000 0.375000
vt 0.625000 0.500000
vt 0.500000 0.375000
vt 0.500000 0.500000
vt 0.625000 0.375000
vt 0.625000 0.500000
vt 0.625000 0.375000
vt 0.625000 0.500000
vt 0.625000 0.500000
vt 0.625000 0.375000
vt 0.875000 0.000000
vt 0.875000 0.125000
vt 0.875000 0.125000
vt 0.875000 0.000000
vt 0.875000 0.250000
vt 0.875000 0.250000
vt 0.625000 0.500000
vt 0.500000 0.500000
vt 0.500000 0.500000
vt 0.625000 0.500000
vt 0.625000 0.250000
vt 0.625000 0.125000
vt 0.625000 0.250000
vt 0.500000 0.750000
vt 0.500000 0.625000
vt 0.625000 0.625000
vt 0.625000 0.750000
vt 0.625000 0.875000
vt 0.500000 0.875000
vt 0.875000 0.000000
vt 0.875000 0.125000
vt 0.750000 0.125000
vt 0.750000 0.000000
vt 0.875000 0.250000
vt 0.750000 0.250000
vt 0.625000 0.312500
vt 0.500000 0.312500
vt 0.500000 0.250000
vt 0.625000 0.250000
vt 0.875000 0.000000
vt 0.875000 0.125000
vt 0.875000 0.125000
vt 0.875000 0.000000
vt 0.750000 0.125000
vt 0.750000 0.000000
vt 0.875000 0.000000
vt 0.875000 0.250000
vt 0.875000 0.250000
vt 0.875000 0.125000
vt 0.875000 0.125000
vt 0.875000 0.000000
vt 0.875000 0.000000
vt 0.875000 0.125000
vt 0.875000 0.250000
vt 0.500000 0.500000
vt 0.625000 0.500000
vt 0.625000 0.375000
vt 0.500000 0.375000
vt 0.625000 0.500000
vt 0.500000 0.500000
vt 0.500000 0.375000
vt 0.625000 0.375000
vt 0.875000 0.250000
vt 0.750000 0.250000
vt 0.875000 0.250000
vt 0.625000 0.375000
vt 0.500000 0.375000
vt 0.625000 0.500000
vt 0.500000 0.500000
vt 0.625000 0.500000
vt 0.500000 0.500000
vt 0.500000 0.500000
vt 0.625000 0.500000
vt 0.625000 0.375000
vt 0.625000 0.500000
vt 0.625000 0.500000
vt 0.625000 0.375000
vt 0.625000 0.000000
vt 0.625000 0.125000
vt 0.500000 0.125000
vt 0.500000 0.000000
vt 0.625000 0.937500
vt 0.500000 0.937500
vt 0.625000 1.000000
vt 0.500000 1.000000
vt 0.625000 0.250000
vt 0.500000 0.250000
vt 0.687500 0.125000
vt 0.687500 0.000000
vt 0.625000 0.125000
vt 0.687500 0.250000
vt 0.500000 0.000000
vt 0.625000 0.000000
vt 0.625000 0.250000
vt 0.625000 0.125000
vt 0.625000 0.250000
vn -0.246039 -0.498696 -0.831124
vn -0.151742 -0.555690 -0.817425
vn -0.151742 -0.555690 -0.817425
vn -0.246039 -0.498696 -0.831124
vn 0.259025 -0.949370 -0.177772
vn 0.037700 -0.977400 -0.208012
vn 0.037700 -0.977400 -0.208012
vn 0.076973 -0.996965 -0.011688
vn 0.989549 -0.000000 0.144198
vn 0.963656 0.104758 0.245750
vn 0.956175 0.212909 0.200996
vn 1.000000 -0.000001 0.000000
vn 0.915778 0.208660 0.343237
vn 0.828541 0.407157 0.384374
vn 0.022270 0.978607 0.204531
vn 0.022270 0.978607 0.204531
vn 0.030288 0.966350 0.255441
vn 0.124153 0.949503 0.288151
vn -0.018258 0.000000 -0.999833
vn -0.018258 0.000001 -0.999833
vn -0.018258 0.000001 -0.999833
vn -0.018258 0.000000 -0.999833
vn 0.871137 -0.006231 0.491001
vn 0.779178 -0.353428 0.517658
vn 0.779178 -0.353428 0.517658
vn 0.871137 -0.006231 0.491001
vn 0.097519 -0.990400 0.097971
vn 0.467221 -0.873222 -0.138522
vn -0.018258 0.000001 -0.999833
vn -0.018258 0.000001 -0.999833
vn -0.809709 0.000000 -0.586832
vn -0.773340 -0.105604 -0.625134
vn -0.763650 -0.052701 -0.643476
vn -0.781496 0.000001 -0.623910
vn 0.944337 0.000000 0.328978
vn 0.944337 -0.000000 0.328978
vn -0.116756 -0.946071 0.302188
vn -0.116756 -0.946071 0.302188
vn 0.944338 -0.000000 0.328978
vn 0.043418 -0.699916 -0.712905
vn 0.043418 -0.699916 -0.712905
vn 0.155377 0.949418 0.272879
vn 0.155377 0.949418 0.272879
vn 0.155377 0.949418 0.272879
vn 0.155377 0.949418 0.272879
vn 0.064992 0.997881 -0.003003
vn 0.000000 1.000000 0.000000
vn 0.000000 1.000000 0.000000
vn 0.064992 0.997881 -0.003003
vn 0.565363 0.808540 -0.163183
vn 0.565363 0.808540 -0.163183
vn 0.751322 0.639167 -0.164259
vn 0.751322 0.639167 -0.164259
vn 0.850098 0.341774 0.400654
vn 0.850098 0.341774 0.400654
vn -0.726189 -0.209735 -0.654721
vn -0.743048 -0.105458 -0.660877
vn 0.225895 0.973715 0.029163
vn 0.225895 0.973715 0.029163
vn 0.082540 0.994802 0.059633
vn 0.082540 0.994802 0.059633
vn 0.082540 0.994802 0.059633
vn 0.082540 0.994802 0.059633
vn 0.997631 0.039689 -0.056186
vn 0.997631 0.039689 -0.056186
vn 0.997631 0.039689 -0.056186
vn 0.997631 0.039689 -0.056186
vn 0.141319 -0.776381 -0.614216
vn 0.141319 -0.776381 -0.614216
vn -0.007888 -0.147802 -0.988986
vn -0.007888 -0.147802 -0.988986
vn -0.007888 -0.147802 -0.988986
vn -0.007888 -0.147802 -0.988986
vn 0.927600 0.373564 -0.002846
vn 0.927600 0.373564 -0.002846
vn 0.927600 0.373564 -0.002846
vn 0.927600 0.373564 -0.002846
vn -0.017648 0.966178 0.257272
vn 0.042959 0.966727 0.252179
vn 0.042959 0.966727 0.252179
vn -0.017648 0.966178 0.257272
vn 0.255418 -0.922825 0.288367
vn 0.255418 -0.922825 0.288367
vn 0.255418 -0.922825 0.288367
vn 0.255418 -0.922825 0.288367
vn -0.434568 -0.540431 -0.720475
vn -0.434568 -0.540431 -0.720475
vn -0.434568 -0.540431 -0.720475
vn -0.434568 -0.540431 -0.720475
vn 0.129709 0.991534 -0.005994
vn 0.129709 0.991534 -0.005994
vn 0.103407 0.963699 0.246153
vn 0.103407 0.963699 0.246153
vn -0.751587 0.000001 -0.659634
vn -0.751587 0.000001 -0.659634
vn 0.928279 0.000001 0.371884
vn 0.928279 -0.000000 0.371884
vn 0.062622 -0.957892 0.280217
vn 0.062622 -0.957892 0.280217
vn -0.751587 0.000000 -0.659634
vn 0.097131 0.973148 0.208686
vn 0.097131 0.973148 0.208686
vn 0.928279 -0.000001 0.371884
vn 0.142178 -0.114722 0.983171
vn 0.247741 0.086395 0.964967
vn 0.247741 0.086395 0.964967
vn 0.142178 -0.114722 0.983171
vn 0.227182 -0.973842 0.004544
vn 0.227182 -0.973842 0.004544
vn 0.227182 -0.973842 0.004544
vn 0.227182 -0.973842 0.004544
vn 0.143997 -0.987794 -0.059392
vn 0.143997 -0.987794 -0.059392
vn 0.097455 -0.994689 -0.033126
vn 0.097455 -0.994689 -0.033126
vn 0.340440 0.283026 0.896659
vn 0.340440 0.283026 0.896659
vn 0.984111 -0.024724 0.175827
vn 0.984111 -0.024724 0.175827
vn 0.974666 -0.130184 0.181876
vn 0.974666 -0.130184 0.181876
vn 0.993244 0.000701 -0.116046
vn 0.993244 0.000701 -0.116046
vn 0.993244 0.000701 -0.116046
vn 0.993244 0.000701 -0.116046
vn 0.050630 -0.998695 -0.006765
vn 0.885991 -0.367998 0.282129
vn 0.885991 -0.367998 0.282129
vn 0.885991 -0.367998 0.282129
vn 0.975487 0.132145 0.175960
vn 0.975487 0.132145 0.175960
vn 0.975487 0.132145 0.175960
vn 0.038221 0.951382 0.305634
vn 0.174743 0.928240 0.328384
vn 0.982486 0.081014 0.167801
vn 0.982486 0.081014 0.167801
vn 0.000000 -0.999999 -0.001197
vn 0.000000 -0.999999 -0.001197
vn 0.000000 -0.999999 -0.001197
vn 0.909159 -0.263168 0.322758
vn 0.919787 -0.149030 0.363018
vn 0.909159 -0.263168 0.322758
vn 0.885110 -0.373422 0.277733
vn 0.104621 -0.939187 -0.327082
vn 0.104621 -0.939187 -0.327082
vn 0.104621 -0.939187 -0.327082
vn 0.104621 -0.939187 -0.327082
vn -0.992141 -0.018477 -0.123755
vn -0.992141 -0.018477 -0.123755
vn -0.992141 -0.018477 -0.123755
vn -0.992141 -0.018477 -0.123755
vn -0.000000 0.997164 0.075254
vn -0.000000 0.997164 0.075254
vn -0.000000 0.997164 0.075254
vn -0.000000 0.997164 0.075254
vn 0.878908 0.290735 0.378147
vn 0.878908 0.290735 0.378147
vn 0.878908 0.290735 0.378147
vn 0.878908 0.290735 0.378147
vn 0.990202 -0.135608 -0.033321
vn 0.990202 -0.135608 -0.033321
vn 0.990202 -0.135608 -0.033321
vn 0.990202 -0.135608 -0.033321
vn 0.619325 -0.545258 0.564917
vn 0.619325 -0.545258 0.564917
vn 0.619325 -0.545258 0.564917
vn 0.619325 -0.545258 0.564917
vn -0.495778 -0.379057 -0.781358
vn -0.495778 -0.379057 -0.781358
vn -0.495778 -0.379057 -0.781358
vn -0.495778 -0.379057 -0.781358
vn 0.307824 0.886819 0.344668
vn 0.307824 0.886819 0.344668
vn 0.246039 -0.498696 -0.831124
vn 0.246039 -0.498696 -0.831124
vn 0.151742 -0.555690 -0.817425
vn 0.151742 -0.555690 -0.817425
vn -0.259025 -0.949370 -0.177772
vn -0.076973 -0.996965 -0.011688
vn -0.037700 -0.977400 -0.208012
vn -0.037700 -0.977400 -0.208012
vn -0.989549 -0.000000 0.144198
vn -1.000000 -0.000001 0.000000
vn -0.956175 0.212909 0.200996
vn -0.963656 0.104758 0.245750
vn -0.828541 0.407157 0.384374
vn -0.915778 0.208660 0.343237
vn -0.022270 0.978607 0.204531
vn -0.124153 0.949503 0.288151
vn -0.030288 0.966350 0.255441
vn -0.022270 0.978607 0.204531
vn 0.018258 0.000001 -0.999833
vn 0.018258 0.000001 -0.999833
vn 0.018258 0.000001 -0.999833
vn 0.018258 0.000001 -0.999833
vn -0.871137 -0.006231 0.491000
vn -0.871137 -0.006231 0.491000
vn -0.779178 -0.353428 0.517658
vn -0.779178 -0.353428 0.517658
vn -0.467221 -0.873222 -0.138522
vn -0.097519 -0.990400 0.097971
vn 0.018258 0.000001 -0.999833
vn 0.018258 0.000001 -0.999833
vn 0.809709 0.000000 -0.586832
vn 0.781496 0.000001 -0.623910
vn 0.763650 -0.052701 -0.643476
vn 0.773340 -0.105604 -0.625134
vn -0.944337 -0.000000 0.328978
vn -0.944337 0.000000 0.328978
vn 0.116756 -0.946071 0.302188
vn 0.116756 -0.946071 0.302188
vn -0.944337 -0.000000 0.328978
vn -0.043418 -0.699916 -0.712905
vn -0.043418 -0.699916 -0.712905
vn -0.155377 0.949418 0.272879
vn -0.155377 0.949418 0.272879
vn -0.155377 0.949418 0.272879
vn -0.155377 0.949418 0.272879
vn -0.064992 0.997881 -0.003003
vn -0.064992 0.997881 -0.003003
vn 0.000000 1.000000 0.000000
vn 0.000000 1.000000 0.000000
vn -0.565363 0.808540 -0.163183
vn -0.751322 0.639167 -0.164259
vn -0.751322 0.639167 -0.164259
vn -0.565363 0.808540 -0.163183
vn -0.850098 0.341774 0.400654
vn -0.850098 0.341774 0.400654
vn 0.743047 -0.105458 -0.660878
vn 0.726189 -0.209735 -0.654722
vn -0.225895 0.973715 0.029163
vn -0.225895 0.973715 0.029163
vn -0.082539 0.994802 0.059633
vn -0.082539 0.994802 0.059633
vn -0.082539 0.994802 0.059633
vn -0.082539 0.994802 0.059633
vn -0.997631 0.039689 -0.056186
vn -0.997631 0.039689 -0.056186
vn -0.997631 0.039689 -0.056186
vn -0.997631 0.039689 -0.056186
vn -0.141319 -0.776381 -0.614216
vn -0.141319 -0.776381 -0.614216
vn 0.007888 -0.147802 -0.988986
vn 0.007888 -0.147802 -0.988986
vn 0.007888 -0.147802 -0.988986
vn 0.007888 -0.147802 -0.988986
vn -0.927600 0.373565 -0.002846
vn -0.927600 0.373565 -0.002846
vn -0.927600 0.373565 -0.002846
vn -0.927600 0.373565 -0.002846
vn 0.017648 0.966178 0.257272
vn 0.017648 0.966178 0.257272
vn -0.042959 0.966727 0.252179
vn -0.042959 0.966727 0.252179
vn -0.255418 -0.922825 0.288367
vn -0.255418 -0.922825 0.288367
vn -0.255418 -0.922825 0.288367
vn -0.255418 -0.922825 0.288367
vn 0.434568 -0.540431 -0.720476
vn 0.434568 -0.540431 -0.720476
vn 0.434568 -0.540431 -0.720476
vn 0.434568 -0.540431 -0.720476
vn -0.129709 0.991534 -0.005993
vn -0.129709 0.991534 -0.005993
vn -0.103407 0.963699 0.246153
vn -0.103407 0.963699 0.246153
vn 0.751587 0.000001 -0.659634
vn 0.751587 0.000001 -0.659634
vn -0.928279 -0.000000 0.371884
vn -0.928279 0.000001 0.371884
vn -0.062621 -0.957892 0.280217
vn -0.062621 -0.957892 0.280217
vn 0.751587 0.000000 -0.659634
vn -0.097131 0.973148 0.208685
vn -0.097131 0.973148 0.208685
vn -0.928279 -0.000001 0.371884
vn -0.142178 -0.114722 0.983171
vn -0.142178 -0.114722 0.983171
vn -0.247741 0.086395 0.964967
vn -0.247741 0.086395 0.964967
vn -0.227182 -0.973842 0.004544
vn -0.227182 -0.973842 0.004544
vn -0.227182 -0.973842 0.004544
vn -0.227182 -0.973842 0.004544
vn -0.143997 -0.987794 -0.059392
vn -0.097455 -0.994689 -0.033126
vn -0.097455 -0.994689 -0.033126
vn -0.143997 -0.987794 -0.059392
vn -0.340440 0.283026 0.896659
vn -0.340440 0.283026 0.896659
vn -0.984111 -0.024724 0.175827
vn -0.974666 -0.130184 0.181876
vn -0.974666 -0.130184 0.181876
vn -0.984111 -0.024724 0.175827
vn -0.993244 0.000701 -0.116046
vn -0.993244 0.000701 -0.116046
vn -0.993244 0.000701 -0.116046
vn -0.993244 0.000701 -0.116046
vn -0.050630 -0.998695 -0.006765
vn -0.885991 -0.367998 0.282129
vn -0.885991 -0.367998 0.282129
vn -0.885991 -0.367998 0.282129
vn -0.975487 0.132145 0.175960
vn -0.975487 0.132145 0.175960
vn -0.975487 0.132145 0.175960
vn -0.174743 0.928240 0.328384
vn -0.038221 0.951382 0.305634
vn -0.982486 0.081014 0.167801
vn -0.982486 0.081014 0.167801
vn 0.000000 -0.999999 -0.001197
vn 0.000000 -0.999999 -0.001197
vn 0.000000 -0.999999 -0.001197
vn -0.909159 -0.263168 0.322758
vn -0.909159 -0.263168 0.322758
vn -0.919787 -0.149030 0.363018
vn -0.885110 -0.373422 0.277733
vn -0.104621 -0.939187 -0.327082
vn -0.104621 -0.939187 -0.327082
vn -0.104621 -0.939187 -0.327082
vn -0.104621 -0.939187 -0.327082
vn 0.992141 -0.018477 -0.123755
vn 0.992141 -0.018477 -0.123755
vn 0.992141 -0.018477 -0.123755
vn 0.992141 -0.018477 -0.123755
vn 0.000000 0.997164 0.075254
vn 0.000000 0.997164 0.075254
vn 0.000000 0.997164 0.075254
vn 0.000000 0.997164 0.075254
vn -0.878908 0.290735 0.378147
vn -0.878908 0.290735 0.378147
vn -0.878908 0.290735 0.378147
vn -0.878908 0.290735 0.378147
vn -0.990202 -0.135608 -0.033321
vn -0.990202 -0.135608 -0.033321
vn -0.990202 -0.135608 -0.033321
vn -0.990202 -0.135608 -0.033321
vn -0.619325 -0.545258 0.564917
vn -0.619325 -0.545258 0.564917
vn -0.619325 -0.545258 0.564917
vn -0.619325 -0.545258 0.564917
vn 0.495778 -0.379057 -0.781358
vn 0.495778 -0.379057 -0.781358
vn 0.495778 -0.379057 -0.781358
vn 0.495778 -0.379057 -0.781358
vn -0.307824 0.886819 0.344668
vn -0.307824 0.886819 0.344668
s 1
g polySurface1
usemtl initialShadingGroup
f 10/10/1 8/8/2 9/9/3 11/11/4
s 2
f 14/20/5 15/19/6 10/10/7 11/11/8
s 3
f 23/31/9 22/32/10 24/33/11 25/34/12
f 22/32/10 26/35/13 27/36/14 24/33/11
s 4
f 17/24/15 21/30/16 4/4/17 5/5/18
s 5
f 53/61/19 52/62/20 54/63/21 55/64/22
s 6
f 16/22/23 14/21/24 25/34/25 24/33/26
s 2
f 14/21/5 11/14/8 23/31/27 25/34/28
s 5
f 52/62/20 56/65/29 57/66/30 54/63/21
s 7
f 11/14/31 9/15/32 28/38/33 29/37/34
s 3
f 22/32/10 23/31/9 31/40/35 30/39/36
s 2
f 23/31/27 11/14/8 29/37/37 31/40/38
s 3
f 26/35/13 22/32/10 30/39/36 33/42/39
s 1
f 9/9/3 8/8/2 6/6/40 7/7/41
s off
f 17/24/42 12/17/43 13/18/44 21/30/45
s 8
f 43/52/46 40/49/47 41/50/48 42/51/49
s 9
f 26/35/50 7/16/51 12/23/52 27/36/53
s 6
f 27/36/54 12/23/55 16/22/23 24/33/26
s 7
f 9/15/32 7/16/56 32/41/57 28/38/33
s 9
f 32/41/58 7/16/51 26/35/50 33/42/59
s off
f 46/55/60 44/53/61 13/18/62 12/17/63
f 47/56/64 46/55/65 12/17/66 7/7/67
s 1
f 45/54/68 47/56/69 7/7/41 6/6/40
s off
f 59/67/70 58/68/71 60/69/72 61/70/73
f 48/57/74 49/58/75 50/59/76 51/60/77
s 10
f 44/53/78 46/55/79 42/51/80 41/50/81
s off
f 46/55/82 47/56/83 49/58/84 48/57/85
f 47/56/86 43/52/87 50/59/88 49/58/89
s 8
f 43/52/46 42/51/49 51/60/90 50/59/91
s 10
f 42/51/80 46/55/79 48/57/92 51/60/93
s 7
f 29/37/34 28/38/33 52/62/94 53/61/95
s 3
f 30/39/36 31/40/35 55/64/96 54/63/97
s 2
f 31/40/38 29/37/37 53/61/98 55/64/99
s 7
f 28/38/33 32/41/57 56/65/100 52/62/94
s 9
f 32/41/58 33/42/59 57/66/101 56/65/102
s 3
f 33/42/39 30/39/36 54/63/97 57/66/103
s 11
f 37/45/104 35/46/105 34/43/106 36/44/107
s off
f 18/25/108 19/26/109 15/19/110 14/20/111
s 12
f 19/26/112 18/25/113 2/13/114 1/12/115
s 11
f 35/46/105 38/47/116 39/48/117 34/43/106
s 13
f 16/22/118 20/27/119 18/28/120 14/21/121
s off
f 5/5/122 3/3/123 20/27/124 17/29/125
s 12
f 37/45/126 1/1/115 2/2/114
s off
f 3/3/127 37/45/128 2/2/129
f 63/71/130 62/72/131 64/73/132
s 4
f 5/5/18 4/4/17 39/48/133 38/47/134
s 13
f 16/22/118 12/23/135 17/29/136 20/27/119
s off
f 1/1/137 37/45/138 36/44/139
s 14
f 3/3/140 38/47/141 35/46/142
f 37/45/143 3/3/140 35/46/142
s off
f 47/56/144 45/54/145 58/68/146 59/67/147
f 45/54/148 40/49/149 60/69/150 58/68/151
f 40/49/152 43/52/153 61/70/154 60/69/155
f 43/52/156 47/56/157 59/67/158 61/70/159
f 20/27/160 3/3/161 2/13/162 18/28/163
f 38/47/164 3/3/165 62/72/166 63/71/167
f 3/3/168 5/5/169 64/73/170 62/72/171
s 4
f 5/5/18 38/47/134 63/71/172 64/73/173
s 15
f 10/74/174 70/77/175 69/76/176 8/75/177
s 16
f 72/78/178 70/77/179 10/74/180 15/79/181
s 17
f 78/80/182 80/83/183 79/82/184 77/81/185
f 77/81/185 79/82/184 82/85/186 81/84/187
s 18
f 74/86/188 67/89/189 4/88/190 21/87/191
s 19
f 101/90/192 103/93/193 102/92/194 100/91/195
s 20
f 73/94/196 79/82/197 80/83/198 72/95/199
s 16
f 72/95/178 80/83/200 78/80/201 70/96/179
s 19
f 100/91/195 102/92/194 105/98/202 104/97/203
s 21
f 70/96/204 84/101/205 83/100/206 69/99/207
s 17
f 77/81/185 85/103/208 86/102/209 78/80/182
s 16
f 78/80/201 86/102/210 84/101/211 70/96/179
s 17
f 81/84/187 88/104/212 85/103/208 77/81/185
s 15
f 69/76/176 68/106/213 6/105/214 8/75/177
s off
f 74/86/215 21/87/216 13/108/217 71/107/218
s 22
f 93/109/219 92/112/220 41/111/221 40/110/222
s 23
f 81/84/223 82/85/224 71/114/225 68/113/226
s 20
f 82/85/227 79/82/197 73/94/196 71/114/228
s 21
f 69/99/207 83/100/206 87/115/229 68/113/230
s 23
f 87/115/231 88/104/232 81/84/223 68/113/226
s off
f 94/116/233 71/107/234 13/108/235 44/117/236
f 95/118/237 68/106/238 71/107/239 94/116/240
s 15
f 45/119/241 6/105/214 68/106/213 95/118/242
s off
f 107/120/243 109/123/244 108/122/245 106/121/246
f 96/124/247 99/127/248 98/126/249 97/125/250
s 24
f 44/117/251 41/111/252 92/112/253 94/116/254
s off
f 94/116/255 96/124/256 97/125/257 95/118/258
f 95/118/259 97/125/260 98/126/261 93/109/262
s 22
f 93/109/219 98/126/263 99/127/264 92/112/220
s 24
f 92/112/253 99/127/265 96/124/266 94/116/254
s 21
f 84/101/205 101/90/267 100/91/268 83/100/206
s 17
f 85/103/208 102/92/269 103/93/270 86/102/209
s 16
f 86/102/210 103/93/271 101/90/272 84/101/211
s 21
f 83/100/206 100/91/268 104/97/273 87/115/229
s 23
f 87/115/231 104/97/274 105/98/275 88/104/232
s 17
f 88/104/212 105/98/276 102/92/269 85/103/208
s 25
f 90/128/277 36/131/278 34/130/279 89/129/280
s off
f 75/132/281 72/78/282 15/79/283 19/133/284
s 26
f 19/133/285 1/135/286 65/134/287 75/132/288
s 25
f 89/129/280 34/130/279 39/137/289 91/136/290
s 27
f 73/94/291 72/95/292 75/139/293 76/138/294
s off
f 67/89/295 74/141/296 76/138/297 66/140/298
s 26
f 90/128/299 65/143/287 1/142/286
s off
f 66/140/300 65/143/301 90/128/302
f 111/144/303 112/146/304 110/145/305
s 18
f 67/89/189 91/136/306 39/137/307 4/88/190
s 27
f 73/94/291 76/138/294 74/141/308 71/114/309
s off
f 1/142/310 36/131/311 90/128/312
s 28
f 66/140/313 89/129/314 91/136/315
f 90/128/316 89/129/314 66/140/313
s off
f 95/118/317 107/120/318 106/121/319 45/119/320
f 45/119/321 106/121/322 108/122/323 40/110/324
f 40/110/325 108/122/326 109/123/327 93/109/328
f 93/109/329 109/123/330 107/120/331 95/118/332
f 76/138/333 75/139/334 65/134/335 66/140/336
f 91/136/337 111/144/338 110/145/339 66/140/340
f 66/140/341 110/145/342 112/146/343 67/89/344
s 18
f 67/89/189 112/146/345 111/144/346 91/136/306
