# This file uses centimeters as units for non-parametric coordinates.

mtllib wingTurret.mtl
g default
v -0.947614 -0.681483 -0.064171
v -0.974143 -0.681482 -1.906617
v 0.983834 -0.680010 -0.084816
v 0.958064 -0.681484 -1.894780
v -0.702909 0.237973 -0.214087
v -0.681167 0.116900 -1.906971
v 0.738645 0.239446 -0.234732
v 0.669442 0.116897 -1.895134
v 0.017869 0.535249 -0.074847
v -0.027764 0.116899 -2.086059
v 0.018113 -0.680745 -0.074494
v -0.039374 -0.681483 -2.431838
v 0.004794 0.681484 -0.987950
v 0.784169 0.418679 -0.972195
v -1.382760 -0.681483 -1.040515
v 1.382760 -0.680746 -0.971841
v -0.784654 0.417945 -1.040868
v 0.106465 0.254263 0.427985
v -0.070481 0.254214 0.429876
v 0.127845 0.254648 2.427871
v -0.049102 0.254601 2.429762
v -0.275990 0.059263 0.432129
v -0.263211 -0.180355 0.432056
v -0.241832 -0.179832 2.431940
v -0.254611 0.059787 2.432015
v -0.083177 -0.289083 0.430202
v 0.119130 -0.289016 0.428040
v 0.140510 -0.288628 2.427924
v -0.061797 -0.288697 2.430087
v 0.299300 -0.179729 0.426042
v 0.311881 0.059917 0.425844
v 0.333261 0.060439 2.425730
v 0.320680 -0.179207 2.425927
v -0.039495 -0.282293 -2.432015
v 0.957942 -0.282294 -1.894958
v -0.974265 -0.282290 -1.906795
v -1.252597 -0.131768 -1.040692
v 1.252355 -0.131034 -0.972018
vt 0.096966 0.982283
vt 0.097836 0.528300
vt 0.144785 0.982351
vt 0.145513 0.528315
vt 0.422738 0.982475
vt 0.422861 0.528207
vt 0.470658 0.982456
vt 0.470777 0.528183
vt 0.141034 0.503162
vt 0.144492 0.446332
vt 0.096132 0.400102
vt 0.051505 0.528243
vt 0.054246 0.400041
vt 0.005701 0.445978
vt 0.008764 0.502716
vt 0.050964 0.982214
vt 0.976845 0.512918
vt 0.908717 0.407371
vt 0.941940 0.413405
vt 0.942969 0.195255
vt 0.979158 0.096819
vt 0.974405 0.200311
vt 0.909236 0.201081
vt 0.525131 0.477275
vt 0.402223 0.350001
vt 0.536596 0.406018
vt 0.484138 0.307396
vt 0.509958 0.138039
vt 0.526525 0.210262
vt 0.399956 0.267747
vt 0.896480 0.956869
vt 0.744908 0.977997
vt 0.592944 0.899057
vt 0.660901 0.583159
vt 0.577245 0.720175
vt 0.654669 0.202223
vt 0.668562 0.305331
vt 0.644536 0.105154
vt 0.670065 0.406573
vt 0.773506 0.413765
vt 0.795124 0.304610
vt 0.773052 0.195432
vt 0.666397 0.501146
vt 0.905313 0.684322
vt 0.820869 0.552131
vt 0.989879 0.813671
vt 0.883910 0.320405
vt 0.263703 0.982466
vt 0.199332 0.982415
vt 0.264083 0.528307
vt 0.199907 0.528319
vt 0.368195 0.982485
vt 0.303935 0.982479
vt 0.368362 0.528243
vt 0.304230 0.528289
vt 0.890620 0.371482
vt 0.883770 0.288010
vt 0.890339 0.236572
vt 0.822814 0.056741
vt 0.493879 0.529499
vt 0.356970 0.398974
vt 0.474462 0.087204
vt 0.352073 0.222357
vt 0.635024 0.018806
vn -0.517151 -0.855875 0.005723
vn -0.517151 -0.855875 0.005723
vn -0.517151 -0.855875 0.005723
vn -0.517151 -0.855875 0.005723
vn -0.517151 -0.855875 0.005723
vn -0.517151 -0.855875 0.005723
vn 0.518800 -0.854879 -0.005352
vn 0.518800 -0.854879 -0.005352
vn 0.518800 -0.854879 -0.005352
vn 0.518800 -0.854879 -0.005352
vn 0.518800 -0.854879 -0.005352
vn 0.518800 -0.854879 -0.005352
vn 0.010689 0.000334 0.999943
vn 0.010689 0.000334 0.999943
vn 0.010689 0.000334 0.999943
vn 0.010689 0.000334 0.999943
vn 0.010689 0.000334 0.999943
vn 0.010689 0.000334 0.999943
vn 0.010689 0.000334 0.999943
vn 0.010689 0.000334 0.999943
vn 0.010689 0.000334 0.999943
vn 0.010689 0.000334 0.999943
vn 0.010689 0.000334 0.999943
vn 0.010689 0.000334 0.999943
vn 0.010689 0.000334 0.999943
vn 0.010689 0.000334 0.999943
vn 0.010689 0.000334 0.999943
vn 0.010689 0.000334 0.999943
vn 0.010689 0.000334 0.999943
vn 0.010689 0.000334 0.999943
vn 0.000341 -1.000000 0.000190
vn 0.000341 -1.000000 0.000190
vn 0.000341 -1.000000 0.000190
vn 0.000341 -1.000000 0.000190
vn 0.000341 -1.000000 0.000190
vn 0.000341 -1.000000 0.000190
vn 0.456609 -0.743851 0.488051
vn 0.456609 -0.743851 0.488051
vn 0.456609 -0.743851 0.488051
vn 0.006824 -0.789335 0.613925
vn 0.006824 -0.789335 0.613925
vn 0.006824 -0.789335 0.613925
vn -0.446694 -0.748028 0.490835
vn -0.446694 -0.748028 0.490835
vn -0.446694 -0.748028 0.490835
vn 0.348058 0.471572 -0.810232
vn 0.348058 0.471572 -0.810232
vn 0.348058 0.471572 -0.810232
vn 0.348058 0.471572 -0.810232
vn 0.348058 0.471572 -0.810232
vn 0.348058 0.471572 -0.810232
vn -0.355108 0.482391 -0.800748
vn -0.355108 0.482391 -0.800748
vn -0.355108 0.482391 -0.800748
vn -0.355108 0.482391 -0.800748
vn -0.355108 0.482391 -0.800748
vn -0.355108 0.482391 -0.800748
vn -0.000002 -1.000000 0.000000
vn -0.000002 -1.000000 0.000000
vn -0.000002 -1.000000 0.000000
vn -0.000573 -0.999999 0.001059
vn -0.000573 -0.999999 0.001059
vn -0.000573 -0.999999 0.001059
vn -0.198417 0.894220 -0.401250
vn -0.198417 0.894220 -0.401250
vn -0.198417 0.894220 -0.401250
vn -0.198417 0.894220 -0.401250
vn -0.198417 0.894220 -0.401250
vn -0.198417 0.894220 -0.401250
vn -0.739740 0.593176 -0.317689
vn -0.739740 0.593176 -0.317689
vn -0.739740 0.593176 -0.317689
vn -0.739740 0.593176 -0.317689
vn -0.739740 0.593176 -0.317689
vn -0.739740 0.593176 -0.317689
vn 0.358538 0.914516 0.187378
vn 0.358538 0.914516 0.187378
vn 0.358538 0.914516 0.187378
vn 0.358538 0.914516 0.187378
vn 0.358538 0.914516 0.187378
vn 0.358538 0.914516 0.187378
vn -0.744212 0.633575 0.211496
vn -0.744212 0.633575 0.211496
vn -0.744212 0.633575 0.211496
vn 0.745824 0.635272 0.200439
vn 0.745824 0.635272 0.200439
vn 0.745824 0.635272 0.200439
vn -0.362965 0.912063 0.190780
vn -0.362965 0.912063 0.190780
vn -0.362965 0.912063 0.190780
vn -0.362965 0.912063 0.190780
vn -0.362965 0.912063 0.190780
vn -0.362965 0.912063 0.190780
vn 0.743333 0.592641 -0.310214
vn 0.743333 0.592641 -0.310214
vn 0.743333 0.592641 -0.310214
vn 0.743333 0.592641 -0.310214
vn 0.743333 0.592641 -0.310214
vn 0.743333 0.592641 -0.310214
vn 0.214461 0.891969 -0.397991
vn 0.214461 0.891969 -0.397991
vn 0.214461 0.891969 -0.397991
vn 0.214461 0.891969 -0.397991
vn 0.214461 0.891969 -0.397991
vn 0.214461 0.891969 -0.397991
vn 0.000775 -0.999999 0.001179
vn 0.000775 -0.999999 0.001179
vn 0.000775 -0.999999 0.001179
vn 0.000759 -1.000000 -0.000339
vn 0.000759 -1.000000 -0.000339
vn 0.000759 -1.000000 -0.000339
vn 0.000315 -1.000000 0.000305
vn 0.000315 -1.000000 0.000305
vn 0.000315 -1.000000 0.000305
vn 0.000202 -1.000000 0.000308
vn 0.000202 -1.000000 0.000308
vn 0.000202 -1.000000 0.000308
vn 0.422190 0.820977 0.384385
vn 0.422190 0.820977 0.384385
vn 0.422190 0.820977 0.384385
vn -0.688036 0.725641 0.007190
vn -0.688036 0.725641 0.007190
vn -0.688036 0.725641 0.007190
vn -0.688036 0.725641 0.007190
vn -0.688036 0.725641 0.007190
vn -0.688036 0.725641 0.007190
vn 0.687071 0.726552 -0.007510
vn 0.687071 0.726552 -0.007510
vn 0.687071 0.726552 -0.007510
vn 0.687071 0.726552 -0.007510
vn 0.687071 0.726552 -0.007510
vn 0.687071 0.726552 -0.007510
vn -0.000274 1.000000 -0.000190
vn -0.000274 1.000000 -0.000190
vn -0.000274 1.000000 -0.000190
vn -0.000274 1.000000 -0.000190
vn -0.000274 1.000000 -0.000190
vn -0.000274 1.000000 -0.000190
vn -0.998523 -0.053260 0.010688
vn -0.998523 -0.053260 0.010688
vn -0.998523 -0.053260 0.010688
vn -0.998523 -0.053260 0.010688
vn -0.998523 -0.053260 0.010688
vn -0.998523 -0.053260 0.010688
vn 0.998567 -0.052437 -0.010661
vn 0.998567 -0.052437 -0.010661
vn 0.998567 -0.052437 -0.010661
vn 0.998567 -0.052437 -0.010661
vn 0.998567 -0.052437 -0.010661
vn 0.998567 -0.052437 -0.010661
vn 0.581098 0.608232 0.540721
vn 0.581098 0.608232 0.540721
vn 0.581098 0.608232 0.540721
vn 0.763206 0.297086 0.573808
vn 0.763206 0.297086 0.573808
vn 0.763206 0.297086 0.573808
vn 0.008079 -0.709010 0.705152
vn 0.008079 -0.709010 0.705152
vn 0.008079 -0.709010 0.705152
vn 0.583667 -0.029976 0.811440
vn 0.583667 -0.029976 0.811440
vn 0.583667 -0.029976 0.811440
vn 0.004966 0.873310 0.487139
vn 0.004966 0.873310 0.487139
vn 0.004966 0.873310 0.487139
vn -0.414476 0.824017 0.386271
vn -0.414476 0.824017 0.386271
vn -0.414476 0.824017 0.386271
vn -0.572873 0.610220 0.547219
vn -0.572873 0.610220 0.547219
vn -0.572873 0.610220 0.547219
vn -0.757116 0.296421 0.582159
vn -0.757116 0.296421 0.582159
vn -0.757116 0.296421 0.582159
vn -0.571867 -0.030749 0.819770
vn -0.571867 -0.030749 0.819770
vn -0.571867 -0.030749 0.819770
vn 0.008077 -0.709149 0.705013
vn 0.008077 -0.709149 0.705013
vn 0.008077 -0.709149 0.705013
vn 0.865292 0.264703 0.425679
vn 0.865292 0.264703 0.425679
vn 0.865292 0.264703 0.425679
vn 0.865292 0.264703 0.425679
vn 0.865292 0.264703 0.425679
vn 0.865292 0.264703 0.425679
vn 0.920734 0.126509 -0.369113
vn 0.920734 0.126509 -0.369113
vn 0.920734 0.126509 -0.369113
vn 0.920734 0.126509 -0.369113
vn 0.920734 0.126509 -0.369113
vn 0.920734 0.126509 -0.369113
vn 0.474083 -0.000250 -0.880480
vn 0.474083 -0.000250 -0.880480
vn 0.474083 -0.000250 -0.880480
vn 0.474083 -0.000250 -0.880480
vn 0.474083 -0.000250 -0.880480
vn 0.474083 -0.000250 -0.880480
vn -0.489844 -0.000536 -0.871810
vn -0.489844 -0.000536 -0.871810
vn -0.489844 -0.000536 -0.871810
vn -0.489844 -0.000536 -0.871810
vn -0.489844 -0.000536 -0.871810
vn -0.489844 -0.000536 -0.871810
vn -0.918404 0.125716 -0.375140
vn -0.918404 0.125716 -0.375140
vn -0.918404 0.125716 -0.375140
vn -0.918404 0.125716 -0.375140
vn -0.918404 0.125716 -0.375140
vn -0.918404 0.125716 -0.375140
vn -0.868153 0.264422 0.419989
vn -0.868153 0.264422 0.419989
vn -0.868153 0.264422 0.419989
vn -0.868153 0.264422 0.419989
vn -0.868153 0.264422 0.419989
vn -0.868153 0.264422 0.419989
s off
g highwingTurret
usemtl wingTurret:blinn22SG
f 26/1/1 29/2/2 23/3/3
f 23/3/4 29/2/5 24/4/6
f 30/5/7 33/6/8 27/7/9
f 27/7/10 33/6/11 28/8/12
f 24/9/13 29/2/14 25/10/15
f 25/10/16 29/2/17 21/11/18
f 29/2/19 28/12/20 21/11/21
f 21/11/22 28/12/23 20/13/24
f 20/13/25 28/12/26 32/14/27
f 28/12/28 33/15/29 32/14/30
f 28/12/31 29/2/32 27/16/33
f 27/16/34 29/2/35 26/1/36
f 11/17/37 30/18/38 27/19/39
f 26/20/40 11/21/41 27/22/42
f 23/23/43 11/21/44 26/20/45
f 35/24/46 34/25/47 8/26/48
f 8/26/49 34/25/50 10/27/51
f 36/28/52 6/29/53 34/30/54
f 34/30/55 6/29/56 10/27/57
f 15/31/58 2/32/59 12/33/60
f 16/34/61 12/33/62 4/35/63
f 17/36/64 13/37/65 6/29/66
f 6/29/67 13/37/68 10/27/69
f 36/28/70 37/38/71 6/29/72
f 6/29/73 37/38/74 17/36/75
f 14/39/76 13/37/77 7/40/78
f 7/40/79 13/37/80 9/41/81
f 37/38/82 5/42/83 17/36/84
f 7/40/85 38/43/86 14/39/87
f 17/36/88 5/42/89 13/37/90
f 13/37/91 5/42/92 9/41/93
f 35/24/94 8/26/95 38/43/96
f 38/43/97 8/26/98 14/39/99
f 14/39/100 8/26/101 13/37/102
f 13/37/103 8/26/104 10/27/105
f 11/44/106 16/34/107 3/45/108
f 15/31/109 11/44/110 1/46/111
f 15/31/112 12/33/113 11/44/114
f 11/44/115 12/33/116 16/34/117
f 9/41/118 18/47/119 7/40/120
f 19/48/121 22/49/122 21/50/123
f 21/50/124 22/49/125 25/51/126
f 31/52/127 18/53/128 32/54/129
f 32/54/130 18/53/131 20/55/132
f 19/48/133 21/50/134 18/53/135
f 18/53/136 21/50/137 20/55/138
f 23/3/139 24/4/140 22/49/141
f 22/49/142 24/4/143 25/51/144
f 31/52/145 32/54/146 30/5/147
f 30/5/148 32/54/149 33/6/150
f 31/56/151 7/40/152 18/47/153
f 31/56/154 3/45/155 7/40/156
f 3/45/157 30/18/158 11/17/159
f 30/18/160 3/45/161 31/56/162
f 9/41/163 19/57/164 18/47/165
f 5/42/166 19/57/167 9/41/168
f 5/42/169 22/58/170 19/57/171
f 1/59/172 22/58/173 5/42/174
f 1/59/175 23/23/176 22/58/177
f 11/21/178 23/23/179 1/59/180
f 7/40/181 3/45/182 38/43/183
f 38/43/184 3/45/185 16/34/186
f 38/43/187 16/34/188 35/24/189
f 35/24/190 16/34/191 4/60/192
f 34/25/193 35/24/194 12/61/195
f 12/61/196 35/24/197 4/60/198
f 36/28/199 34/30/200 2/62/201
f 2/62/202 34/30/203 12/63/204
f 37/38/205 36/28/206 15/64/207
f 15/64/208 36/28/209 2/62/210
f 5/42/211 37/38/212 1/59/213
f 1/59/214 37/38/215 15/64/216
